<svg width="56" height="64" viewBox="0 0 56 64" fill="none" xmlns="http://www.w3.org/2000/svg">
<path d="M0 58C0 61.3125 2.6875 64 6 64H50C53.3125 64 56 61.3125 56 58V24H0V58ZM40 33.5C40 32.675 40.675 32 41.5 32H46.5C47.325 32 48 32.675 48 33.5V38.5C48 39.325 47.325 40 46.5 40H41.5C40.675 40 40 39.325 40 38.5V33.5ZM40 49.5C40 48.675 40.675 48 41.5 48H46.5C47.325 48 48 48.675 48 49.5V54.5C48 55.325 47.325 56 46.5 56H41.5C40.675 56 40 55.325 40 54.5V49.5ZM24 33.5C24 32.675 24.675 32 25.5 32H30.5C31.325 32 32 32.675 32 33.5V38.5C32 39.325 31.325 40 30.5 40H25.5C24.675 40 24 39.325 24 38.5V33.5ZM24 49.5C24 48.675 24.675 48 25.5 48H30.5C31.325 48 32 48.675 32 49.5V54.5C32 55.325 31.325 56 30.5 56H25.5C24.675 56 24 55.325 24 54.5V49.5ZM8 33.5C8 32.675 8.675 32 9.5 32H14.5C15.325 32 16 32.675 16 33.5V38.5C16 39.325 15.325 40 14.5 40H9.5C8.675 40 8 39.325 8 38.5V33.5ZM8 49.5C8 48.675 8.675 48 9.5 48H14.5C15.325 48 16 48.675 16 49.5V54.5C16 55.325 15.325 56 14.5 56H9.5C8.675 56 8 55.325 8 54.5V49.5ZM50 8H44V2C44 0.9 43.1 0 42 0H38C36.9 0 36 0.9 36 2V8H20V2C20 0.9 19.1 0 18 0H14C12.9 0 12 0.9 12 2V8H6C2.6875 8 0 10.6875 0 14V20H56V14C56 10.6875 53.3125 8 50 8Z" fill="black"/>
</svg>
