<svg width="64" height="64" viewBox="0 0 64 64" fill="none" xmlns="http://www.w3.org/2000/svg">
<path d="M3.99977 52.0007C3.99977 55.1831 5.26398 58.2352 7.51428 60.4855C9.76459 62.7358 12.8167 64 15.9991 64H47.9972C51.1796 64 54.2317 62.7358 56.482 60.4855C58.7323 58.2352 59.9965 55.1831 59.9965 52.0007V48.0009H3.99977V52.0007ZM61.9964 36.0016H49.9971V32.0019H57.9966C58.527 32.0019 59.0357 31.7912 59.4108 31.4161C59.7858 31.0411 59.9965 30.5324 59.9965 30.002V28.0021C59.9965 27.4717 59.7858 26.963 59.4108 26.588C59.0357 26.2129 58.527 26.0022 57.9966 26.0022H47.9972C46.9364 26.0022 45.9191 26.4236 45.169 27.1737C44.4189 27.9238 43.9974 28.9412 43.9974 30.002V36.0016H35.9979V12.003C35.9979 10.9422 36.4193 9.92486 37.1694 9.17476C37.9195 8.42466 38.9369 8.00325 39.9977 8.00325C41.0585 8.00325 42.0758 8.42466 42.8259 9.17476C43.576 9.92486 43.9974 10.9422 43.9974 12.003V14.0029C43.9974 14.5333 44.2081 15.042 44.5832 15.417C44.9583 15.7921 45.4669 16.0028 45.9973 16.0028H49.9971C50.5275 16.0028 51.0362 15.7921 51.4112 15.417C51.7863 15.042 51.997 14.5333 51.997 14.0029V12.003C51.9946 10.2249 51.5977 8.46949 50.8349 6.8633C50.0721 5.25711 48.9625 3.84016 47.586 2.71461C46.2095 1.58905 44.6004 0.782931 42.8747 0.354355C41.149 -0.0742209 39.3497 -0.114574 37.6066 0.236204C31.9094 1.34239 27.9984 6.67333 27.9984 12.4767V36.0016H19.9988V30.002C19.9988 28.9412 19.5774 27.9238 18.8273 27.1737C18.0772 26.4236 17.0599 26.0022 15.9991 26.0022H5.99965C5.46925 26.0022 4.96057 26.2129 4.58552 26.588C4.21047 26.963 3.99977 27.4717 3.99977 28.0021V30.002C3.99977 30.5324 4.21047 31.0411 4.58552 31.4161C4.96057 31.7912 5.46925 32.0019 5.99965 32.0019H13.9992V36.0016H1.99988C1.46948 36.0016 0.960803 36.2123 0.585752 36.5874C0.210701 36.9624 0 37.4711 0 38.0015L0 42.0013C0 42.5317 0.210701 43.0404 0.585752 43.4154C0.960803 43.7905 1.46948 44.0012 1.99988 44.0012H61.9964C62.5268 44.0012 63.0355 43.7905 63.4105 43.4154C63.7856 43.0404 63.9963 42.5317 63.9963 42.0013V38.0015C63.9963 37.4711 63.7856 36.9624 63.4105 36.5874C63.0355 36.2123 62.5268 36.0016 61.9964 36.0016Z" fill="black"/>
</svg>
