<svg width="64" height="64" viewBox="0 0 64 64" fill="none" xmlns="http://www.w3.org/2000/svg">
<path d="M20 36H13C12.4475 36 12 35.5525 12 35V33C12 32.4475 12.4475 32 13 32H20V24H13C12.4475 24 12 23.5525 12 23V21C12 20.4475 12.4475 20 13 20H20V12H13C12.4475 12 12 11.5525 12 11V9C12 8.4475 12.4475 8 13 8H20V4C20 1.79125 18.2088 0 16 0H4C1.79125 0 0 1.79125 0 4V60C0 60.3462 0.11375 60.655 0.19625 60.975L20 41.1725V36ZM60 44H56V51C56 51.5525 55.5525 52 55 52H53C52.4475 52 52 51.5525 52 51V44H44V51C44 51.5525 43.5525 52 43 52H41C40.4475 52 40 51.5525 40 51V44H32V51C32 51.5525 31.5525 52 31 52H29C28.4475 52 28 51.5525 28 51V44H22.8288L3.025 63.8037C3.345 63.8862 3.655 64 4 64H60C62.2088 64 64 62.2088 64 60V48C64 45.7912 62.2088 44 60 44Z" fill="black"/>
</svg>
