<svg width="83" height="64" viewBox="0 0 83 64" fill="none" xmlns="http://www.w3.org/2000/svg">
<path d="M41.1429 0C18.42 0 0 18.42 0 41.1429C0 48.6857 2.03571 55.7514 5.58 61.8286C6.38143 63.2029 7.90857 64 9.5 64H72.7857C74.3771 64 75.9043 63.2029 76.7057 61.8286C80.25 55.7514 82.2857 48.6857 82.2857 41.1429C82.2857 18.42 63.8657 0 41.1429 0ZM41.1429 9.14286C43.2443 9.14286 44.94 10.59 45.4743 12.5214C45.3157 12.8443 45.0971 13.1257 44.9814 13.4743L43.6643 17.4271C42.9314 17.9257 42.0971 18.2857 41.1443 18.2857C38.62 18.2857 36.5729 16.2386 36.5729 13.7143C36.5729 11.19 38.6186 9.14286 41.1429 9.14286ZM13.7143 50.2857C11.19 50.2857 9.14286 48.2386 9.14286 45.7143C9.14286 43.19 11.19 41.1429 13.7143 41.1429C16.2386 41.1429 18.2857 43.19 18.2857 45.7143C18.2857 48.2386 16.2386 50.2857 13.7143 50.2857ZM20.5714 27.4286C18.0471 27.4286 16 25.3814 16 22.8571C16 20.3329 18.0471 18.2857 20.5714 18.2857C23.0957 18.2857 25.1429 20.3329 25.1429 22.8571C25.1429 25.3814 23.0957 27.4286 20.5714 27.4286ZM55.8243 17.0843L47.0629 43.37C49.0186 45.0471 50.2857 47.5057 50.2857 50.2857C50.2857 51.96 49.8029 53.5071 49.0171 54.8571H33.2686C32.4829 53.5071 32 51.96 32 50.2857C32 45.4371 35.7857 41.51 40.5571 41.2014L49.32 14.9143C49.9157 13.12 51.8529 12.1357 53.6571 12.7471C55.4529 13.3457 56.4214 15.2886 55.8243 17.0843ZM57.9186 25.2557L60.1357 18.6057C60.6314 18.4214 61.1543 18.2871 61.7143 18.2871C64.2386 18.2871 66.2857 20.3343 66.2857 22.8586C66.2857 25.3829 64.2386 27.43 61.7143 27.43C60.0886 27.4286 58.73 26.5329 57.9186 25.2557ZM68.5714 50.2857C66.0471 50.2857 64 48.2386 64 45.7143C64 43.19 66.0471 41.1429 68.5714 41.1429C71.0957 41.1429 73.1429 43.19 73.1429 45.7143C73.1429 48.2386 71.0957 50.2857 68.5714 50.2857Z" fill="black"/>
</svg>
