<svg width="32" height="64" viewBox="0 0 32 64" fill="none" xmlns="http://www.w3.org/2000/svg">
<path d="M24 48C24 52.4183 20.4182 56 16 56C11.5817 56 7.99996 52.4183 7.99996 48C7.99996 45.0394 9.60946 42.4564 12 41.0729V28C12 25.7909 13.7908 24 16 24C18.2091 24 20 25.7909 20 28V41.0729C22.3905 42.4564 24 45.0394 24 48ZM28 37.4184C30.489 40.2387 32 43.9426 32 48C32 56.837 24.8371 64 16 64C15.9626 64 15.9238 63.9999 15.8863 63.9996C7.09858 63.9386 -0.0446647 56.7045 0.000210283 47.9166C0.0207103 43.8919 1.52809 40.2194 3.99996 37.4184V12C3.99996 5.37262 9.37258 0 16 0C22.6273 0 28 5.37262 28 12V37.4184ZM26 48C26 43.7076 23.5787 41.4762 22 39.6872V12C22 8.69163 19.3083 6 16 6C12.6916 6 9.99996 8.69163 9.99996 12V39.6872C8.40846 41.4907 6.02183 43.6998 6.00008 47.9473C5.97208 53.4318 10.4455 57.9617 15.928 57.9997L16 58C21.514 58 26 53.514 26 48Z" fill="black"/>
</svg>
